<svg xmlns="http://www.w3.org/2000/svg" xmlns:xlink="http://www.w3.org/1999/xlink" width="100" height="100" viewBox="0 0 100 100">
    <defs>
        <circle id="a" cx="50" cy="50" r="50"/>
    </defs>
    <g fill="none" fill-rule="evenodd">
        <mask id="b" fill="#fff">
            <use xlink:href="#a"/>
        </mask>
        <use fill="#005C91" xlink:href="#a"/>
        <circle cx="50" cy="50" r="50" fill="#FFF" mask="url(#b)"/>
        <path fill="#ED1C24" fill-rule="nonzero" d="M45 61c.807.138 1.098.56 1.556.75C49.68 63.045 54.664 61.63 57 61v.75c-1.044 1.25-1.422 2.933-2.222 4.5-1.122 2.207-2.594 4.28-3.556 6.75h-.444c-.987-4.422-4.962-7.5-5.778-12z" mask="url(#b)"/>
        <path fill="#354A55" fill-rule="nonzero" d="M63.389 55.743c.425-2.26 2.524-4.092 3.362-6.158 1.845-4.546 2.618-10.676 1.441-16.421-2.161-.783-4.892-.583-6.965-1.54-6.295-2.91-9.677-8.467-12.97-14.625h-.48c-1.48 6.635-7.604 9.907-12.97 12.573-.518 6.625-.859 12.75 1.202 18.474.924 2.566 3.345 5.519 3.843 7.954-2.421-.27-5.404-1.188-7.686-1.796-2.748-.731-5.07-.452-7.686-1.026a4.524 4.524 0 0 1-.48-1.54c3.192-2.804 4.45-8.15 5.524-13.342.934-4.514-.84-9.935.24-14.113 1.681-6.517 4.736-12.572 9.607-15.651 2.032-1.283 4.614-2.294 6.965-3.08 2.882-.962 7.832-.197 10.088.514 8.886 2.8 13.05 7.233 15.851 16.421 1.756 5.755-.096 14.492 1.441 20.27a27.893 27.893 0 0 0 3.122 7.185c.69 1.106 1.85 1.519 2.162 3.079l-.24.257c-5.375.146-10.388 2.052-15.371 2.565zM92.199 96.05v-2.745c-.9-3.927-1.153-8.92-2.026-12.807v-2.516c-.835-3.48-1.844-7.29-4.278-9.148-4.277-3.268-9.5-5.35-14.858-7.547-2.148-.88-5.442-.915-7.205-2.287-2.24.153-2.012 2.632-2.926 4.117-1.695 2.76-3.497 5.605-5.403 8.233-1.297 1.788-3.443 3.535-4.053 5.946-1.745-.366-2.463-3.058-3.377-4.345-3.109-4.382-6.468-8.462-8.555-13.951-5.392.265-10.806 3.58-14.858 5.489-4.438 2.086-8.578 3.048-11.032 7.09-1.988 3.277-1.256 7.62-2.251 12.12-.925 4.19-1.067 9.503-2.026 13.723v2.287C8.675 102.764 8.014 106.652 8 110h86c-.081-4.652-.862-9.756-1.801-13.95zm-4.278 8.69H21.283c-2.292 0-5.548.4-7.43-.229a51.258 51.258 0 0 1 1.351-10.52c.608-2.497.408-5.297.9-7.547.811-3.687.179-7.611 1.351-10.978.545-1.557 2.05-3.092 3.377-3.888.741-.443 1.288-.274 1.802-.914 1.389 0 7.395.457 8.104.914 1.043-.059 2.306-.21 2.702.458.15.457-2.866 5.816-3.602 6.403.45 1.67 3.305 1.995 4.727 2.745 4.62 2.433 9.701 4.466 14.86 6.403-.021 2.436-.258 12.39.224 13.265v.457c1.295.026 2.193-.057 2.927-.457-.295-4.171-.45-9.31 0-13.265 5.101-2.163 10.23-3.96 14.859-6.403 1.63-.86 3.377-1.185 4.727-2.287.126-.165-2.886-5.601-3.602-6.175.014-.391.09-.777.225-1.144l11.707-.228c1.126 1.143 2.841 1.941 3.602 3.43.646 1.26.297 2.235.676 3.888.882 3.85 1.141 8.668 2.026 12.579.693 3.06-.054 8.514 1.35 10.749.014.99 0 2.083-.225 2.744z" mask="url(#b)"/>
    </g>
</svg>
