<svg xmlns="http://www.w3.org/2000/svg" xmlns:xlink="http://www.w3.org/1999/xlink" width="100" height="100" viewBox="0 0 100 100">
    <defs>
        <circle id="a" cx="50" cy="50" r="50"/>
    </defs>
    <g fill="none" fill-rule="evenodd">
        <mask id="b" fill="#fff">
            <use xlink:href="#a"/>
        </mask>
        <use fill="#005C91" xlink:href="#a"/>
        <circle cx="50" cy="50" r="50" fill="#FFF" mask="url(#b)"/>
        <path fill="#354A55" fill-rule="nonzero" d="M56.544 24.89v.682c.837.227 2.99 1.082 3.392 1.819h-.452c-1.33 1.053-3.166.694-5.201 1.137-6.838 1.499-14.71-.616-20.577-1.364v.454c-1.398 1.97-.79 8.187-.452 10.915h-.226v-.454c-1.64-1.82-1.787-5.496-2.488-8.187-.298-1.137-.63-2.835-.904-4.093-.654-3.015.269-6.722.904-8.64 2.641-7.96 6.784-9.04 15.376-10.916 3.04-.664 7.722-.352 10.402.455 5.63 1.699 9.529 5.137 11.306 10.688.543 1.691.262 3.04.678 5.002.4 1.888.466 4.98 0 7.05-.753 3.35-1.565 6.646-2.261 9.778h-.226v-6.822c-.712-1.137-.407-3.018-1.13-4.093-1.283-1.91-5.242-3.211-8.141-3.411z" mask="url(#b)"/>
        <path fill="#007DC5" fill-rule="nonzero" d="M45.098 60.784c.79.135 1.076.55 1.525.736 3.063 1.27 7.95-.118 10.24-.736v.736c-1.024 1.225-1.395 2.875-2.179 4.411-1.1 2.165-2.542 4.196-3.486 6.618h-.435c-.968-4.336-4.865-7.353-5.665-11.765z" mask="url(#b)"/>
        <path fill="#354A55" fill-rule="nonzero" d="M92.31 95.859v-2.744c-.903-3.925-1.155-8.916-2.032-12.802v-2.515c-.838-3.48-1.85-7.288-4.29-9.144-4.292-3.267-9.532-5.347-14.907-7.544-2.155-.88-5.459-.915-7.227-2.286-2.247.153-2.02 2.63-2.936 4.115-1.7 2.759-3.508 5.603-5.42 8.23-1.302 1.787-3.454 3.534-4.066 5.943-1.75-.365-2.47-3.056-3.388-4.343-3.119-4.38-6.488-8.459-8.582-13.945-5.409.265-10.84 3.577-14.906 5.486-4.451 2.085-8.605 3.048-11.067 7.087-1.994 3.276-1.26 7.618-2.258 12.117-.928 4.188-1.07 9.498-2.033 13.716v2.286c-.677 3.055-1.341 6.941-1.355 10.288h86.275c-.082-4.65-.865-9.753-1.807-13.945zm-4.29 8.687H21.168c-2.299 0-5.565.4-7.453-.229.086-3.544.54-7.068 1.355-10.516.61-2.496.41-5.295.904-7.544.813-3.685.178-7.608 1.355-10.973.546-1.557 2.055-3.091 3.388-3.887.743-.443 1.291-.274 1.806-.914 1.394 0 7.42.457 8.13.914 1.047-.06 2.314-.21 2.711.457.151.458-2.875 5.814-3.613 6.402.451 1.668 3.315 1.993 4.742 2.743 4.635 2.432 9.732 4.465 14.906 6.401-.02 2.435-.257 12.384.226 13.26v.457c1.299.025 2.2-.057 2.936-.458-.296-4.17-.451-9.306 0-13.259 5.118-2.163 10.263-3.96 14.906-6.401 1.636-.86 3.388-1.184 4.743-2.286.127-.165-2.895-5.599-3.613-6.173.014-.39.09-.777.226-1.143l11.744-.228c1.129 1.143 2.85 1.94 3.613 3.429.648 1.26.298 2.233.678 3.886.885 3.848 1.145 8.665 2.032 12.574.696 3.059-.054 8.511 1.356 10.745.013.99 0 2.082-.226 2.743z" mask="url(#b)"/>
    </g>
</svg>
